<svg width="368" height="56" viewBox="0 0 368 56" fill="none" xmlns="http://www.w3.org/2000/svg">
<path d="M0 8C0 3.58172 3.58172 0 8 0H360C364.418 0 368 3.58172 368 8V48C368 52.4183 364.418 56 360 56H8C3.58172 56 0 52.4183 0 48V8Z" fill="#03A94D"/>
<path fill-rule="evenodd" clip-rule="evenodd" d="M33.5605 28.7061L26.1457 18H20V38H26.4395V27.2977L33.8543 38H40V18H33.5605V28.7061Z" fill="white"/>
<path d="M139.241 21.2559V29.9922C140.796 29.9746 142.229 29.8604 143.846 29.5176L144.128 31.1699C142.106 31.6094 140.366 31.6797 138.362 31.6797H137.29V21.2559H139.241ZM150.333 19.6738V35.5645H148.469V19.6738H150.333ZM146.922 20.0078V34.8086H145.077V26.3887H141.754V24.8066H145.077V20.0078H146.922ZM165.097 19.6738V35.582H163.128V19.6738H165.097ZM156.537 20.834C158.927 20.834 160.667 23.0137 160.685 26.4414C160.667 29.9043 158.927 32.0664 156.537 32.0664C154.128 32.0664 152.388 29.9043 152.388 26.4414C152.388 23.0137 154.128 20.834 156.537 20.834ZM156.537 22.5918C155.183 22.5918 154.269 24.0156 154.269 26.4414C154.269 28.8848 155.183 30.3086 156.537 30.3086C157.872 30.3086 158.787 28.8848 158.787 26.4414C158.787 24.0156 157.872 22.5918 156.537 22.5918ZM180.459 19.6738V35.582H178.526V26.9688H175.291V31.7324H167.733V20.9043H169.701V24.8594H173.375V20.9043H175.291V25.3691H178.526V19.6738H180.459ZM169.701 30.168H173.375V26.3887H169.701V30.168ZM200.883 32.1016V33.7188H186.363V32.1016H192.621V29.5176H188.086V24.3145H197.226V22.3457H188.051V20.7637H199.16V25.8613H190.037V27.918H199.529V29.5176H194.554V32.1016H200.883ZM214.258 21.2207V23.0137C214.258 25.1406 214.258 27.3379 213.678 30.6777L211.692 30.502C212.307 27.373 212.307 25.0703 212.307 23.0137V22.8027H203.149V21.2207H214.258ZM216.104 31.7852V33.3848H201.62V31.7852H216.104ZM230.113 19.6914V31.1699H228.144V19.6914H230.113ZM230.552 33.666V35.248H219.601V30.0098H221.57V33.666H230.552ZM221.447 20.7285C223.855 20.7285 225.718 22.3984 225.718 24.7012C225.718 27.0566 223.855 28.6914 221.447 28.6914C219.021 28.6914 217.158 27.0566 217.158 24.7012C217.158 22.3984 219.021 20.7285 221.447 20.7285ZM221.447 22.4336C220.093 22.4336 219.056 23.3301 219.074 24.7012C219.056 26.1074 220.093 26.9863 221.447 26.9863C222.765 26.9863 223.802 26.1074 223.802 24.7012C223.802 23.3301 222.765 22.4336 221.447 22.4336Z" fill="white"/>
</svg>
